<mxfile host="app.diagrams.net" modified="2024-06-17T13:18:51.061Z" agent="Mozilla/5.0 (Windows NT 10.0; Win64; x64; rv:127.0) Gecko/20100101 Firefox/127.0" etag="4DCESNwFuw3BX3tAIHk_" version="24.5.4" type="device">
  <diagram name="Page-1" id="TKLl4fkF9nfZFqYcrOOv">
    <mxGraphModel dx="1497" dy="826" grid="1" gridSize="10" guides="1" tooltips="1" connect="1" arrows="1" fold="1" page="1" pageScale="1" pageWidth="827" pageHeight="1169" math="0" shadow="0">
      <root>
        <mxCell id="0" />
        <mxCell id="1" parent="0" />
        <mxCell id="3YaJZZRAZs2XQNdfud5V-1" value="Ship" style="html=1;whiteSpace=wrap;" parent="1" vertex="1">
          <mxGeometry x="220" y="180" width="110" height="50" as="geometry" />
        </mxCell>
        <mxCell id="3YaJZZRAZs2XQNdfud5V-3" value="&lt;font style=&quot;font-size: 40px;&quot;&gt;US Navy&lt;br&gt;&lt;/font&gt;" style="text;html=1;align=center;verticalAlign=middle;resizable=0;points=[];autosize=1;strokeColor=none;fillColor=none;" parent="1" vertex="1">
          <mxGeometry x="324" y="40" width="180" height="60" as="geometry" />
        </mxCell>
        <mxCell id="3YaJZZRAZs2XQNdfud5V-5" value="Sailor" style="html=1;whiteSpace=wrap;" parent="1" vertex="1">
          <mxGeometry x="220" y="450" width="110" height="50" as="geometry" />
        </mxCell>
        <mxCell id="3YaJZZRAZs2XQNdfud5V-6" value="Mission" style="html=1;whiteSpace=wrap;" parent="1" vertex="1">
          <mxGeometry x="510" y="180" width="110" height="50" as="geometry" />
        </mxCell>
        <mxCell id="3YaJZZRAZs2XQNdfud5V-7" value="Dockyard" style="html=1;whiteSpace=wrap;" parent="1" vertex="1">
          <mxGeometry x="510" y="450" width="110" height="50" as="geometry" />
        </mxCell>
        <mxCell id="3YaJZZRAZs2XQNdfud5V-11" value="" style="edgeStyle=entityRelationEdgeStyle;fontSize=12;html=1;endArrow=ERoneToMany;rounded=0;exitX=0;exitY=0.5;exitDx=0;exitDy=0;entryX=1;entryY=1;entryDx=0;entryDy=0;" parent="1" source="3YaJZZRAZs2XQNdfud5V-7" target="3YaJZZRAZs2XQNdfud5V-1" edge="1">
          <mxGeometry width="100" height="100" relative="1" as="geometry">
            <mxPoint x="360" y="400" as="sourcePoint" />
            <mxPoint x="460" y="300" as="targetPoint" />
          </mxGeometry>
        </mxCell>
        <mxCell id="3YaJZZRAZs2XQNdfud5V-12" value="" style="edgeStyle=entityRelationEdgeStyle;fontSize=12;html=1;endArrow=ERoneToMany;rounded=0;exitX=0.5;exitY=1;exitDx=0;exitDy=0;entryX=0.5;entryY=0;entryDx=0;entryDy=0;" parent="1" source="3YaJZZRAZs2XQNdfud5V-1" target="3YaJZZRAZs2XQNdfud5V-5" edge="1">
          <mxGeometry width="100" height="100" relative="1" as="geometry">
            <mxPoint x="360" y="400" as="sourcePoint" />
            <mxPoint x="460" y="300" as="targetPoint" />
          </mxGeometry>
        </mxCell>
        <mxCell id="3YaJZZRAZs2XQNdfud5V-13" value="" style="edgeStyle=entityRelationEdgeStyle;fontSize=12;html=1;endArrow=ERoneToMany;rounded=0;exitX=0;exitY=0.5;exitDx=0;exitDy=0;entryX=1;entryY=0.5;entryDx=0;entryDy=0;" parent="1" source="3YaJZZRAZs2XQNdfud5V-6" target="3YaJZZRAZs2XQNdfud5V-1" edge="1">
          <mxGeometry width="100" height="100" relative="1" as="geometry">
            <mxPoint x="360" y="400" as="sourcePoint" />
            <mxPoint x="460" y="300" as="targetPoint" />
          </mxGeometry>
        </mxCell>
        <mxCell id="Tps7LbEaRnVAMBOSnaUy-106" value="" style="rounded=0;whiteSpace=wrap;html=1;" parent="1" vertex="1">
          <mxGeometry x="100" y="700" width="250" height="320" as="geometry" />
        </mxCell>
        <mxCell id="Tps7LbEaRnVAMBOSnaUy-107" value="&lt;b&gt;&lt;font style=&quot;font-size: 24px;&quot;&gt;Mission&lt;br&gt;&lt;/font&gt;&lt;/b&gt;" style="text;html=1;align=center;verticalAlign=middle;resizable=0;points=[];autosize=1;strokeColor=none;fillColor=none;" parent="1" vertex="1">
          <mxGeometry x="105" y="710" width="110" height="40" as="geometry" />
        </mxCell>
        <mxCell id="Tps7LbEaRnVAMBOSnaUy-110" value="&lt;div align=&quot;left&quot;&gt;&lt;font style=&quot;font-size: 20px;&quot;&gt;MissionID: Int&lt;/font&gt;&lt;br&gt;&lt;font style=&quot;font-size: 20px;&quot;&gt;CodeName: String&lt;/font&gt;&lt;br&gt;&lt;font style=&quot;font-size: 20px;&quot;&gt;StartDate: $date&lt;/font&gt;&lt;br&gt;&lt;font style=&quot;font-size: 20px;&quot;&gt;EndDate: $date&lt;/font&gt;&lt;br&gt;&lt;font style=&quot;font-size: 20px;&quot;&gt;Ships: Array&amp;lt;Ship&amp;gt;&lt;/font&gt;&lt;br&gt;&lt;/div&gt;" style="text;html=1;align=left;verticalAlign=middle;resizable=0;points=[];autosize=1;strokeColor=none;fillColor=none;" parent="1" vertex="1">
          <mxGeometry x="140" y="750" width="200" height="130" as="geometry" />
        </mxCell>
        <mxCell id="Tps7LbEaRnVAMBOSnaUy-111" value="" style="rounded=0;whiteSpace=wrap;html=1;" parent="1" vertex="1">
          <mxGeometry x="174" y="880" width="166" height="120" as="geometry" />
        </mxCell>
        <mxCell id="Tps7LbEaRnVAMBOSnaUy-112" value="&lt;b&gt;&lt;font style=&quot;font-size: 20px;&quot;&gt;Ship&lt;/font&gt;&lt;/b&gt;" style="text;html=1;align=center;verticalAlign=middle;resizable=0;points=[];autosize=1;strokeColor=none;fillColor=none;" parent="1" vertex="1">
          <mxGeometry x="174" y="880" width="70" height="40" as="geometry" />
        </mxCell>
        <mxCell id="Tps7LbEaRnVAMBOSnaUy-113" value="&lt;div align=&quot;left&quot;&gt;&lt;font style=&quot;font-size: 16px;&quot;&gt;ShipID: int&lt;/font&gt;&lt;br&gt;&lt;font style=&quot;font-size: 16px;&quot;&gt;ShipName: String&lt;/font&gt;&lt;br&gt;&lt;font style=&quot;font-size: 16px;&quot;&gt;Type: String&lt;/font&gt;&lt;br&gt;&lt;/div&gt;" style="text;html=1;align=left;verticalAlign=middle;resizable=0;points=[];autosize=1;strokeColor=none;fillColor=none;" parent="1" vertex="1">
          <mxGeometry x="204" y="920" width="150" height="70" as="geometry" />
        </mxCell>
        <mxCell id="Tps7LbEaRnVAMBOSnaUy-114" value="" style="rounded=0;whiteSpace=wrap;html=1;" parent="1" vertex="1">
          <mxGeometry x="390" y="700" width="252" height="300" as="geometry" />
        </mxCell>
        <mxCell id="Tps7LbEaRnVAMBOSnaUy-115" value="&lt;b&gt;&lt;font style=&quot;font-size: 24px;&quot;&gt;Dock&lt;/font&gt;&lt;/b&gt;" style="text;html=1;align=center;verticalAlign=middle;resizable=0;points=[];autosize=1;strokeColor=none;fillColor=none;" parent="1" vertex="1">
          <mxGeometry x="402" y="710" width="80" height="40" as="geometry" />
        </mxCell>
        <mxCell id="Tps7LbEaRnVAMBOSnaUy-116" value="&lt;div align=&quot;left&quot;&gt;&lt;font style=&quot;font-size: 20px;&quot;&gt;DockID: Int&lt;/font&gt;&lt;br&gt;&lt;font style=&quot;font-size: 20px;&quot;&gt;DockName: String&lt;/font&gt;&lt;br&gt;&lt;font style=&quot;font-size: 20px;&quot;&gt;Location: String&lt;/font&gt;&lt;br&gt;&lt;font style=&quot;font-size: 20px;&quot;&gt;Ships: Array&amp;lt;Ship&amp;gt;&lt;/font&gt;&lt;br&gt;&lt;/div&gt;" style="text;html=1;align=left;verticalAlign=middle;resizable=0;points=[];autosize=1;strokeColor=none;fillColor=none;" parent="1" vertex="1">
          <mxGeometry x="430" y="750" width="200" height="110" as="geometry" />
        </mxCell>
        <mxCell id="Tps7LbEaRnVAMBOSnaUy-117" value="" style="rounded=0;whiteSpace=wrap;html=1;" parent="1" vertex="1">
          <mxGeometry x="462" y="860" width="166" height="120" as="geometry" />
        </mxCell>
        <mxCell id="Tps7LbEaRnVAMBOSnaUy-118" value="&lt;b&gt;&lt;font style=&quot;font-size: 20px;&quot;&gt;Ship&lt;/font&gt;&lt;/b&gt;" style="text;html=1;align=center;verticalAlign=middle;resizable=0;points=[];autosize=1;strokeColor=none;fillColor=none;" parent="1" vertex="1">
          <mxGeometry x="462" y="860" width="70" height="40" as="geometry" />
        </mxCell>
        <mxCell id="Tps7LbEaRnVAMBOSnaUy-119" value="&lt;div align=&quot;left&quot;&gt;&lt;font style=&quot;font-size: 16px;&quot;&gt;ShipID: int&lt;/font&gt;&lt;br&gt;&lt;font style=&quot;font-size: 16px;&quot;&gt;ShipName: String&lt;/font&gt;&lt;br&gt;&lt;font style=&quot;font-size: 16px;&quot;&gt;Type: String&lt;/font&gt;&lt;br&gt;&lt;/div&gt;" style="text;html=1;align=left;verticalAlign=middle;resizable=0;points=[];autosize=1;strokeColor=none;fillColor=none;" parent="1" vertex="1">
          <mxGeometry x="492" y="900" width="150" height="70" as="geometry" />
        </mxCell>
        <mxCell id="Tps7LbEaRnVAMBOSnaUy-120" value="" style="rounded=0;whiteSpace=wrap;html=1;" parent="1" vertex="1">
          <mxGeometry x="415" y="1040" width="252" height="300" as="geometry" />
        </mxCell>
        <mxCell id="Tps7LbEaRnVAMBOSnaUy-121" value="&lt;font style=&quot;font-size: 24px;&quot;&gt;&lt;b&gt;Ship&lt;/b&gt;&lt;/font&gt;" style="text;html=1;align=center;verticalAlign=middle;resizable=0;points=[];autosize=1;strokeColor=none;fillColor=none;" parent="1" vertex="1">
          <mxGeometry x="427" y="1050" width="80" height="40" as="geometry" />
        </mxCell>
        <mxCell id="Tps7LbEaRnVAMBOSnaUy-122" value="&lt;div align=&quot;left&quot;&gt;&lt;font style=&quot;font-size: 20px;&quot;&gt;ShipID: Int&lt;/font&gt;&lt;br&gt;&lt;font style=&quot;font-size: 20px;&quot;&gt;ShipName: String&lt;/font&gt;&lt;br&gt;&lt;font style=&quot;font-size: 20px;&quot;&gt;Type: String&lt;/font&gt;&lt;br&gt;&lt;font style=&quot;font-size: 20px;&quot;&gt;Sailors: Array&amp;lt;Sailor&amp;gt;&lt;/font&gt;&lt;br&gt;&lt;/div&gt;" style="text;html=1;align=left;verticalAlign=middle;resizable=0;points=[];autosize=1;strokeColor=none;fillColor=none;" parent="1" vertex="1">
          <mxGeometry x="455" y="1090" width="220" height="110" as="geometry" />
        </mxCell>
        <mxCell id="Tps7LbEaRnVAMBOSnaUy-123" value="" style="rounded=0;whiteSpace=wrap;html=1;" parent="1" vertex="1">
          <mxGeometry x="487" y="1200" width="166" height="120" as="geometry" />
        </mxCell>
        <mxCell id="Tps7LbEaRnVAMBOSnaUy-124" value="&lt;font style=&quot;font-size: 20px;&quot;&gt;&lt;b&gt;Sailor&lt;/b&gt;&lt;/font&gt;" style="text;html=1;align=center;verticalAlign=middle;resizable=0;points=[];autosize=1;strokeColor=none;fillColor=none;" parent="1" vertex="1">
          <mxGeometry x="482" y="1200" width="80" height="40" as="geometry" />
        </mxCell>
        <mxCell id="Tps7LbEaRnVAMBOSnaUy-125" value="&lt;div align=&quot;left&quot;&gt;&lt;font style=&quot;font-size: 16px;&quot;&gt;SailorID: int&lt;/font&gt;&lt;br&gt;&lt;font style=&quot;font-size: 16px;&quot;&gt;Name: String&lt;/font&gt;&lt;br&gt;&lt;font style=&quot;font-size: 16px;&quot;&gt;Rank: String&lt;/font&gt;&lt;br&gt;&lt;/div&gt;" style="text;html=1;align=left;verticalAlign=middle;resizable=0;points=[];autosize=1;strokeColor=none;fillColor=none;" parent="1" vertex="1">
          <mxGeometry x="517" y="1240" width="120" height="70" as="geometry" />
        </mxCell>
        <mxCell id="Tps7LbEaRnVAMBOSnaUy-126" value="" style="endArrow=none;html=1;rounded=0;exitX=1;exitY=0.25;exitDx=0;exitDy=0;entryX=0;entryY=0.25;entryDx=0;entryDy=0;" parent="1" source="Tps7LbEaRnVAMBOSnaUy-111" target="Tps7LbEaRnVAMBOSnaUy-120" edge="1">
          <mxGeometry width="50" height="50" relative="1" as="geometry">
            <mxPoint x="500" y="910" as="sourcePoint" />
            <mxPoint x="550" y="860" as="targetPoint" />
          </mxGeometry>
        </mxCell>
        <mxCell id="Tps7LbEaRnVAMBOSnaUy-127" value="" style="endArrow=none;html=1;rounded=0;entryX=0.25;entryY=1;entryDx=0;entryDy=0;exitX=0.25;exitY=0;exitDx=0;exitDy=0;" parent="1" source="Tps7LbEaRnVAMBOSnaUy-120" target="Tps7LbEaRnVAMBOSnaUy-117" edge="1">
          <mxGeometry width="50" height="50" relative="1" as="geometry">
            <mxPoint x="500" y="1050" as="sourcePoint" />
            <mxPoint x="550" y="1000" as="targetPoint" />
          </mxGeometry>
        </mxCell>
        <mxCell id="P2x496MH-iQikSfW0I2k-1" value="" style="rounded=0;whiteSpace=wrap;html=1;" vertex="1" parent="1">
          <mxGeometry x="100" y="1050" width="190" height="150" as="geometry" />
        </mxCell>
        <mxCell id="P2x496MH-iQikSfW0I2k-2" value="&lt;font style=&quot;font-size: 24px;&quot;&gt;&lt;b&gt;Sailor&lt;/b&gt;&lt;/font&gt;" style="text;html=1;align=center;verticalAlign=middle;resizable=0;points=[];autosize=1;strokeColor=none;fillColor=none;" vertex="1" parent="1">
          <mxGeometry x="107" y="1060" width="90" height="40" as="geometry" />
        </mxCell>
        <mxCell id="P2x496MH-iQikSfW0I2k-3" value="&lt;div align=&quot;left&quot;&gt;&lt;font style=&quot;font-size: 20px;&quot;&gt;SailorID: Int&lt;/font&gt;&lt;br&gt;&lt;font style=&quot;font-size: 20px;&quot;&gt;Name: String&lt;/font&gt;&lt;br&gt;&lt;font style=&quot;font-size: 20px;&quot;&gt;Rank: String&lt;/font&gt;&lt;br&gt;&lt;/div&gt;" style="text;html=1;align=left;verticalAlign=middle;resizable=0;points=[];autosize=1;strokeColor=none;fillColor=none;" vertex="1" parent="1">
          <mxGeometry x="139" y="1100" width="140" height="90" as="geometry" />
        </mxCell>
        <mxCell id="P2x496MH-iQikSfW0I2k-7" value="" style="endArrow=none;html=1;rounded=0;exitX=1;exitY=0.25;exitDx=0;exitDy=0;entryX=0;entryY=0.5;entryDx=0;entryDy=0;" edge="1" parent="1" source="P2x496MH-iQikSfW0I2k-1" target="Tps7LbEaRnVAMBOSnaUy-123">
          <mxGeometry width="50" height="50" relative="1" as="geometry">
            <mxPoint x="420" y="1020" as="sourcePoint" />
            <mxPoint x="470" y="970" as="targetPoint" />
          </mxGeometry>
        </mxCell>
      </root>
    </mxGraphModel>
  </diagram>
</mxfile>
